<?xml version="1.0" standalone="no"?>
<!DOCTYPE svg PUBLIC "-//W3C//DTD SVG 20010904//EN"
 "http://www.w3.org/TR/2001/REC-SVG-20010904/DTD/svg10.dtd">
<svg version="1.0" xmlns="http://www.w3.org/2000/svg"
 width="300.000000pt" height="300.000000pt" viewBox="0 0 300.000000 300.000000"
 preserveAspectRatio="xMidYMid meet">
<metadata>
Created by potrace 1.10, written by Peter Selinger 2001-2011
</metadata>
<g transform="translate(0.000000,300.000000) scale(0.100000,-0.100000)"
fill="#000000" stroke="none">
<path d="M1379 2095 c-252 -88 -466 -163 -519 -182 -30 -11 -128 -46 -217 -78
-90 -32 -163 -62 -163 -66 0 -4 38 -20 85 -35 l85 -28 0 -262 0 -262 -45 -117
c-47 -121 -49 -149 -15 -180 39 -36 134 -31 184 8 l29 24 -51 134 -52 134 0
248 c0 136 3 247 8 247 4 0 180 -61 391 -135 210 -74 390 -135 399 -135 21 -1
1032 353 1032 361 0 3 -21 12 -47 21 -27 9 -106 37 -178 63 -71 26 -224 80
-340 120 -115 41 -267 94 -336 118 l-126 45 -124 -43z"/>
<path d="M870 1385 c0 -172 0 -175 21 -175 45 0 258 -53 349 -87 52 -20 132
-54 177 -76 l83 -40 52 25 c185 90 269 120 443 157 55 12 108 24 118 27 15 5
17 22 17 175 0 93 -4 169 -9 169 -5 0 -37 -11 -72 -24 -35 -13 -104 -38 -154
-54 -49 -17 -148 -52 -220 -77 -71 -26 -142 -49 -157 -52 -24 -5 -253 70 -544
177 -44 17 -85 30 -92 30 -9 0 -12 -46 -12 -175z"/>
</g>
</svg>
