<?xml version="1.0" standalone="no"?>
<!DOCTYPE svg PUBLIC "-//W3C//DTD SVG 20010904//EN"
 "http://www.w3.org/TR/2001/REC-SVG-20010904/DTD/svg10.dtd">
<svg version="1.0" xmlns="http://www.w3.org/2000/svg"
 width="300.000000pt" height="300.000000pt" viewBox="0 0 300.000000 300.000000"
 preserveAspectRatio="xMidYMid meet">
<metadata>
Created by potrace 1.10, written by Peter Selinger 2001-2011
</metadata>
<g transform="translate(0.000000,300.000000) scale(0.100000,-0.100000)"
fill="#000000" stroke="none">
<path d="M1360 2089 c-74 -27 -180 -64 -235 -83 -121 -42 -238 -84 -365 -130
-52 -19 -141 -50 -197 -68 -57 -18 -103 -35 -103 -38 0 -3 43 -18 95 -34 l95
-29 0 -263 0 -262 -50 -132 c-56 -145 -56 -150 7 -177 43 -18 98 -17 139 3 61
29 61 31 5 176 l-51 133 0 253 c0 160 4 251 10 247 18 -11 775 -276 790 -277
8 0 239 79 512 176 274 97 505 176 513 176 33 0 12 18 -37 32 -29 9 -118 39
-198 68 -80 28 -233 82 -340 120 -107 38 -253 89 -324 114 -71 25 -130 46
-130 45 -1 0 -62 -23 -136 -50z m257 -35 c84 -30 249 -88 398 -139 22 -8 72
-26 110 -40 39 -15 114 -41 169 -60 54 -19 100 -36 103 -39 8 -7 -34 -26 -136
-62 -53 -18 -175 -61 -271 -94 -515 -181 -496 -176 -555 -149 -11 5 -72 26
-135 48 -63 21 -194 67 -290 101 -262 92 -290 101 -309 98 -17 -3 -91 40 -91
53 0 7 87 41 250 98 63 22 216 75 340 119 290 103 282 100 302 101 9 1 61 -15
115 -35z m-915 -982 c6 -15 12 -29 12 -32 1 -3 10 -27 20 -53 17 -44 17 -50 3
-65 -19 -18 -102 -21 -119 -4 -12 12 -2 102 13 102 5 0 9 5 9 10 0 6 7 27 15
46 16 39 30 37 47 -4z"/>
<path d="M870 1391 l0 -178 53 -7 c137 -18 336 -81 484 -153 l92 -44 94 44
c158 76 357 138 485 153 l57 6 -2 177 c-1 97 -3 177 -3 178 0 1 -17 -5 -37
-14 -34 -14 -376 -134 -530 -186 -72 -24 -30 -34 -358 81 -110 38 -230 81
-267 95 l-68 26 0 -178z m207 59 c430 -154 423 -152 498 -124 22 8 92 33 155
55 233 82 342 119 351 119 5 0 9 -54 9 -120 0 -138 6 -129 -109 -150 -87 -16
-286 -83 -387 -130 -46 -22 -88 -40 -94 -40 -6 0 -48 18 -94 40 -101 47 -300
114 -387 130 -115 21 -109 12 -109 150 0 99 3 120 15 120 8 0 77 -22 152 -50z"/>
</g>
</svg>
