<?xml version="1.0" encoding="utf-8"?>
<!-- Generator: Adobe Illustrator 25.2.1, SVG Export Plug-In . SVG Version: 6.00 Build 0)  -->
<svg version="1.1" id="Layer_1" xmlns="http://www.w3.org/2000/svg" xmlns:xlink="http://www.w3.org/1999/xlink" x="0px" y="0px"
	 viewBox="0 0 48 30" style="enable-background:new 0 0 48 30;" xml:space="preserve">
<style type="text/css">
	.st0{fill:#010101;}
</style>
<g transform="translate(0.000000,300.000000) scale(0.100000,-0.100000)">
	<path class="st0" d="M211.09,2989.9c-59.41-20.66-109.42-38.27-121.87-42.74c-7.04-2.58-30.06-10.8-50.95-18.32
		C17.14,2921.34,0,2914.29,0,2913.35s8.92-4.7,19.96-8.22l19.96-6.57v-61.52v-61.52l-11.74-31c-13.15-34.05-13.15-35.22,1.64-41.56
		c10.1-4.23,23.01-3.99,32.64,0.7c14.32,6.81,14.32,7.28,1.17,41.33l-11.98,31.23v58.23c0,31.93,0.7,58,1.88,58
		c0.94,0,42.27-14.32,91.81-31.7c49.31-17.38,91.81-31.7,94.16-31.7c4.23,0,234.81,80.54,240.21,83.83c1.41,0.7-2.58,3.29-9.16,5.64
		c-6.34,2.11-25.12,8.92-42.03,15.03c-16.67,6.11-52.6,18.78-79.84,28.18c-27,9.39-62.69,22.07-78.9,27.71L240.21,3000
		L211.09,2989.9z"/>
	<path class="st0" d="M91.58,2823.42c0-40.62,0-41.33,4.93-41.33c10.57,0,60.58-12.45,81.95-20.43
		c12.21-4.7,30.99-12.68,41.56-17.85l19.49-9.63l22.07,10.8c29.59,14.56,64.81,26.3,98.15,32.87l27.71,5.4v40.62
		c0,23.48-0.94,40.39-2.11,40.39c-1.17,0-5.17-1.17-8.92-2.58c-7.04-2.82-98.39-34.75-122.1-42.74
		c-17.14-5.64-6.57-8.22-94.63,23.01c-31.7,11.27-59.88,20.9-62.69,21.6l-5.4,1.17V2823.42z"/>
</g>
</svg>
